<svg id="my-svg" width="100%" xmlns="http://www.w3.org/2000/svg" xmlns:xlink="http://www.w3.org/1999/xlink" class="classDiagram" style="max-width: 480.958px; background-color: transparent;" viewBox="0 0 480.958251953125 475.5" role="graphics-document document" aria-roledescription="class"><style>#my-svg{font-family:Noto Sans CJK SC,Noto Sans,sans-serif;font-size:16px;fill:#171717;}@keyframes edge-animation-frame{from{stroke-dashoffset:0;}}@keyframes dash{to{stroke-dashoffset:0;}}#my-svg .edge-animation-slow{stroke-dasharray:9,5!important;stroke-dashoffset:900;animation:dash 50s linear infinite;stroke-linecap:round;}#my-svg .edge-animation-fast{stroke-dasharray:9,5!important;stroke-dashoffset:900;animation:dash 20s linear infinite;stroke-linecap:round;}#my-svg .error-icon{fill:#FFF8F4;}#my-svg .error-text{fill:#171717;stroke:#171717;}#my-svg .edge-thickness-normal{stroke-width:1px;}#my-svg .edge-thickness-thick{stroke-width:3.5px;}#my-svg .edge-pattern-solid{stroke-dasharray:0;}#my-svg .edge-thickness-invisible{stroke-width:0;fill:none;}#my-svg .edge-pattern-dashed{stroke-dasharray:3;}#my-svg .edge-pattern-dotted{stroke-dasharray:2;}#my-svg .marker{fill:#FF7A3D;stroke:#FF7A3D;}#my-svg .marker.cross{stroke:#FF7A3D;}#my-svg svg{font-family:Noto Sans CJK SC,Noto Sans,sans-serif;font-size:16px;}#my-svg p{margin:0;}#my-svg g.classGroup text{fill:#FF7A3D;stroke:none;font-family:Noto Sans CJK SC,Noto Sans,sans-serif;font-size:10px;}#my-svg g.classGroup text .title{font-weight:bolder;}#my-svg .cluster-label text{fill:#171717;}#my-svg .cluster-label span{color:#171717;}#my-svg .cluster-label span p{background-color:transparent;}#my-svg .cluster rect{fill:#FFF8F4;stroke:#E6E0DC;stroke-width:1px;}#my-svg .cluster text{fill:#171717;}#my-svg .cluster span{color:#171717;}#my-svg .nodeLabel,#my-svg .edgeLabel{color:#171717;}#my-svg .noteLabel .nodeLabel,#my-svg .noteLabel .edgeLabel{color:#333;}#my-svg .edgeLabel .label rect{fill:#FFEEE5;}#my-svg .label text{fill:#171717;}#my-svg .labelBkg{background:#FFEEE5;}#my-svg .edgeLabel .label span{background:#FFEEE5;}#my-svg .classTitle{font-weight:bolder;}#my-svg .node rect,#my-svg .node circle,#my-svg .node ellipse,#my-svg .node polygon,#my-svg .node path{fill:#FFEEE5;stroke:#FF7A3D;stroke-width:1;}#my-svg .divider{stroke:#FF7A3D;stroke-width:1;}#my-svg g.clickable{cursor:pointer;}#my-svg g.classGroup rect{fill:#FFEEE5;stroke:#FF7A3D;}#my-svg g.classGroup line{stroke:#FF7A3D;stroke-width:1;}#my-svg .classLabel .box{stroke:none;stroke-width:0;fill:#FFEEE5;opacity:0.5;}#my-svg .classLabel .label{fill:#FF7A3D;font-size:10px;}#my-svg .relation{stroke:#FF7A3D;stroke-width:1;fill:none;}#my-svg .dashed-line{stroke-dasharray:3;}#my-svg .dotted-line{stroke-dasharray:1 2;}#my-svg [id$="-compositionStart"],#my-svg .composition{fill:#FF7A3D!important;stroke:#FF7A3D!important;stroke-width:1;}#my-svg [id$="-compositionEnd"],#my-svg .composition{fill:#FF7A3D!important;stroke:#FF7A3D!important;stroke-width:1;}#my-svg [id$="-dependencyStart"],#my-svg .dependency{fill:#FF7A3D!important;stroke:#FF7A3D!important;stroke-width:1;}#my-svg [id$="-dependencyEnd"],#my-svg .dependency{fill:#FF7A3D!important;stroke:#FF7A3D!important;stroke-width:1;}#my-svg [id$="-extensionStart"],#my-svg .extension{fill:transparent!important;stroke:#FF7A3D!important;stroke-width:1;}#my-svg [id$="-extensionEnd"],#my-svg .extension{fill:transparent!important;stroke:#FF7A3D!important;stroke-width:1;}#my-svg [id$="-aggregationStart"],#my-svg .aggregation{fill:transparent!important;stroke:#FF7A3D!important;stroke-width:1;}#my-svg [id$="-aggregationEnd"],#my-svg .aggregation{fill:transparent!important;stroke:#FF7A3D!important;stroke-width:1;}#my-svg [id$="-lollipopStart"],#my-svg .lollipop{fill:#FFEEE5!important;stroke:#FF7A3D!important;stroke-width:1;}#my-svg [id$="-lollipopEnd"],#my-svg .lollipop{fill:#FFEEE5!important;stroke:#FF7A3D!important;stroke-width:1;}#my-svg .edgeTerminals{font-size:11px;line-height:initial;}#my-svg .classTitleText{text-anchor:middle;font-size:18px;fill:#171717;}#my-svg .edgeLabel[data-look="neo"]{background-color:#FEFDFB;text-align:center;}#my-svg .edgeLabel[data-look="neo"] p{background-color:#FEFDFB;}#my-svg .edgeLabel[data-look="neo"] rect{opacity:0.5;background-color:#FEFDFB;fill:#FEFDFB;}#my-svg .label-icon{display:inline-block;height:1em;overflow:visible;vertical-align:-0.125em;}#my-svg .node .label-icon path{fill:currentColor;stroke:revert;stroke-width:revert;}#my-svg .node .neo-node{stroke:#FF7A3D;}#my-svg [data-look="neo"].node rect,#my-svg [data-look="neo"].cluster rect,#my-svg [data-look="neo"].node polygon{stroke:url(#my-svg-gradient);filter:drop-shadow( 1px 2px 2px rgba(185,185,185,1));}#my-svg [data-look="neo"].node path{stroke:url(#my-svg-gradient);stroke-width:1px;}#my-svg [data-look="neo"].node .outer-path{filter:drop-shadow( 1px 2px 2px rgba(185,185,185,1));}#my-svg [data-look="neo"].node .neo-line path{stroke:#FF7A3D;filter:none;}#my-svg [data-look="neo"].node circle{stroke:url(#my-svg-gradient);filter:drop-shadow( 1px 2px 2px rgba(185,185,185,1));}#my-svg [data-look="neo"].node circle .state-start{fill:#000000;}#my-svg [data-look="neo"].icon-shape .icon{fill:url(#my-svg-gradient);filter:drop-shadow( 1px 2px 2px rgba(185,185,185,1));}#my-svg [data-look="neo"].icon-shape .icon-neo path{stroke:url(#my-svg-gradient);filter:drop-shadow( 1px 2px 2px rgba(185,185,185,1));}#my-svg :root{--mermaid-font-family:"trebuchet ms",verdana,arial,sans-serif;}</style><g><defs><marker id="my-svg_class-aggregationStart" class="marker aggregation class" refX="18" refY="7" markerWidth="190" markerHeight="240" orient="auto"><path d="M 18,7 L9,13 L1,7 L9,1 Z"/></marker></defs><defs><marker id="my-svg_class-aggregationEnd" class="marker aggregation class" refX="1" refY="7" markerWidth="20" markerHeight="28" orient="auto"><path d="M 18,7 L9,13 L1,7 L9,1 Z"/></marker></defs><defs><marker id="my-svg_class-aggregationStart-margin" class="marker aggregation class" refX="15" refY="7" markerWidth="190" markerHeight="240" orient="auto" markerUnits="userSpaceOnUse"><path d="M 18,7 L9,13 L1,7 L9,1 Z" style="stroke-width: 2;"/></marker></defs><defs><marker id="my-svg_class-aggregationEnd-margin" class="marker aggregation class" refX="1" refY="7" markerWidth="20" markerHeight="28" orient="auto" markerUnits="userSpaceOnUse"><path d="M 18,7 L9,13 L1,7 L9,1 Z" style="stroke-width: 2;"/></marker></defs><defs><marker id="my-svg_class-extensionStart" class="marker extension class" refX="18" refY="7" markerWidth="20" markerHeight="28" orient="auto" markerUnits="userSpaceOnUse"><path d="M 1,7 L18,13 V 1 Z"/></marker></defs><defs><marker id="my-svg_class-extensionEnd" class="marker extension class" refX="1" refY="7" markerWidth="20" markerHeight="28" orient="auto"><path d="M 1,1 V 13 L18,7 Z"/></marker></defs><marker id="my-svg_class-extensionStart-margin" class="marker extension class" refX="18" refY="7" markerWidth="20" markerHeight="28" orient="auto" markerUnits="userSpaceOnUse" viewBox="0 0 20 14"><polygon points="10,7 18,13 18,1" style="stroke-width: 2; stroke-dasharray: 0;"/></marker><defs><marker id="my-svg_class-extensionEnd-margin" class="marker extension class" refX="9" refY="7" markerWidth="20" markerHeight="28" orient="auto" markerUnits="userSpaceOnUse" viewBox="0 0 20 14"><polygon points="10,1 10,13 18,7" style="stroke-width: 2; stroke-dasharray: 0;"/></marker></defs><defs><marker id="my-svg_class-compositionStart" class="marker composition class" refX="18" refY="7" markerWidth="190" markerHeight="240" orient="auto"><path d="M 18,7 L9,13 L1,7 L9,1 Z"/></marker></defs><defs><marker id="my-svg_class-compositionEnd" class="marker composition class" refX="1" refY="7" markerWidth="20" markerHeight="28" orient="auto"><path d="M 18,7 L9,13 L1,7 L9,1 Z"/></marker></defs><defs><marker id="my-svg_class-compositionStart-margin" class="marker composition class" refX="15" refY="7" markerWidth="190" markerHeight="240" orient="auto" markerUnits="userSpaceOnUse"><path viewBox="0 0 15 15" d="M 18,7 L9,13 L1,7 L9,1 Z" style="stroke-width: 0;"/></marker></defs><defs><marker id="my-svg_class-compositionEnd-margin" class="marker composition class" refX="3.5" refY="7" markerWidth="20" markerHeight="28" orient="auto" markerUnits="userSpaceOnUse"><path d="M 18,7 L9,13 L1,7 L9,1 Z" style="stroke-width: 0;"/></marker></defs><defs><marker id="my-svg_class-dependencyStart" class="marker dependency class" refX="6" refY="7" markerWidth="190" markerHeight="240" orient="auto"><path d="M 5,7 L9,13 L1,7 L9,1 Z"/></marker></defs><defs><marker id="my-svg_class-dependencyEnd" class="marker dependency class" refX="13" refY="7" markerWidth="20" markerHeight="28" orient="auto"><path d="M 18,7 L9,13 L14,7 L9,1 Z"/></marker></defs><defs><marker id="my-svg_class-dependencyStart-margin" class="marker dependency class" refX="4" refY="7" markerWidth="190" markerHeight="240" orient="auto" markerUnits="userSpaceOnUse"><path d="M 5,7 L9,13 L1,7 L9,1 Z" style="stroke-width: 0;"/></marker></defs><defs><marker id="my-svg_class-dependencyEnd-margin" class="marker dependency class" refX="16" refY="7" markerWidth="20" markerHeight="28" orient="auto" markerUnits="userSpaceOnUse"><path d="M 18,7 L9,13 L14,7 L9,1 Z" style="stroke-width: 0;"/></marker></defs><defs><marker id="my-svg_class-lollipopStart" class="marker lollipop class" refX="13" refY="7" markerWidth="190" markerHeight="240" orient="auto"><circle fill="transparent" cx="7" cy="7" r="6"/></marker></defs><defs><marker id="my-svg_class-lollipopEnd" class="marker lollipop class" refX="1" refY="7" markerWidth="190" markerHeight="240" orient="auto"><circle fill="transparent" cx="7" cy="7" r="6"/></marker></defs><defs><marker id="my-svg_class-lollipopStart-margin" class="marker lollipop class" refX="13" refY="7" markerWidth="190" markerHeight="240" orient="auto" markerUnits="userSpaceOnUse"><circle fill="transparent" cx="7" cy="7" r="6" stroke-width="2"/></marker></defs><defs><marker id="my-svg_class-lollipopEnd-margin" class="marker lollipop class" refX="1" refY="7" markerWidth="190" markerHeight="240" orient="auto" markerUnits="userSpaceOnUse"><circle fill="transparent" cx="7" cy="7" r="6" stroke-width="2"/></marker></defs><g class="root"><g class="clusters"/><g class="edgePaths"><path d="M126.623,120.5L130.79,120.5C134.956,120.5,143.29,120.5,150.623,120.5C157.956,120.5,164.29,120.5,167.456,120.5L170.623,120.5" id="my-svg-id_Deck_Slide_1" class="edge-thickness-normal edge-pattern-solid relation" style=";;;" data-edge="true" data-et="edge" data-id="id_Deck_Slide_1" data-points="W3sieCI6MTI2LjYyMjkwOTU0NTg5ODQ0LCJ5IjoxMjAuNX0seyJ4IjoxNTEuNjIyOTA5NTQ1ODk4NDQsInkiOjEyMC41fSx7IngiOjE3Ni42MjI5MDk1NDU4OTg0NCwieSI6MTIwLjV9XQ==" data-look="classic" marker-end="url(#my-svg_class-dependencyEnd)"/><path d="M308.326,120.5L312.493,120.5C316.659,120.5,324.993,120.5,332.773,125.943C340.553,131.387,347.78,142.274,351.394,147.717L355.008,153.161" id="my-svg-id_Slide_Diagram_2" class="edge-thickness-normal edge-pattern-solid relation" style=";;;" data-edge="true" data-et="edge" data-id="id_Slide_Diagram_2" data-points="W3sieCI6MzA4LjMyNjAzNDU0NTg5ODQ0LCJ5IjoxMjAuNX0seyJ4IjozMzMuMzI2MDM0NTQ1ODk4NDQsInkiOjEyMC41fSx7IngiOjM1OC4zMjYwMzQ1NDU4OTg0NCwieSI6MTU4LjE1OTcwMDQ5ODc0MjR9XQ==" data-look="classic" marker-end="url(#my-svg_class-dependencyEnd)"/><path d="M296.569,368.5L302.695,368.5C308.822,368.5,321.074,368.5,330.814,363.057C340.553,357.613,347.78,346.726,351.394,341.283L355.008,335.839" id="my-svg-id_Asset_Diagram_3" class="edge-thickness-normal edge-pattern-solid relation" style=";;;" data-edge="true" data-et="edge" data-id="id_Asset_Diagram_3" data-points="W3sieCI6Mjk2LjU2OTI0MDU3MDA2ODM2LCJ5IjozNjguNX0seyJ4IjozMzMuMzI2MDM0NTQ1ODk4NDQsInkiOjM2OC41fSx7IngiOjM1OC4zMjYwMzQ1NDU4OTg0NCwieSI6MzMwLjg0MDI5OTUwMTI1NzZ9XQ==" data-look="classic" marker-end="url(#my-svg_class-dependencyEnd)"/></g><g class="edgeLabels"><g class="edgeLabel"><g class="label" data-id="id_Deck_Slide_1" transform="translate(0, 0)"><text y="-10.1" text-anchor="middle"><tspan class="text-outer-tspan row" x="0" y="-0.1em" dy="1.1em" text-anchor="middle"/></text></g></g><g><rect class="background" style="stroke: none"/></g><g class="edgeLabel"><g class="label" data-id="id_Slide_Diagram_2" transform="translate(0, 0)"><text y="-10.1" text-anchor="middle"><tspan class="text-outer-tspan row" x="0" y="-0.1em" dy="1.1em" text-anchor="middle"/></text></g></g><g><rect class="background" style="stroke: none"/></g><g class="edgeLabel"><g class="label" data-id="id_Asset_Diagram_3" transform="translate(0, 0)"><text y="-10.1" text-anchor="middle"><tspan class="text-outer-tspan row" x="0" y="-0.1em" dy="1.1em" text-anchor="middle"/></text></g></g><g><rect class="background" style="stroke: none"/></g></g><g class="nodes"><g class="node default" id="my-svg-classId-Deck-0" data-look="classic" transform="translate(67.31145477294922, 120.5)"><g class="basic label-container outer-path"><path d="M-59.31145477294922 -112.5 L59.31145477294922 -112.5 L59.31145477294922 112.5 L-59.31145477294922 112.5" stroke="none" stroke-width="0" fill="#FFEEE5" style=""/><path d="M-59.31145477294922 -112.5 C-28.599812824407234 -112.5, 2.1118291241347507 -112.5, 59.31145477294922 -112.5 M-59.31145477294922 -112.5 C-29.275368708722446 -112.5, 0.7607173555043261 -112.5, 59.31145477294922 -112.5 M59.31145477294922 -112.5 C59.31145477294922 -25.38329175810354, 59.31145477294922 61.73341648379292, 59.31145477294922 112.5 M59.31145477294922 -112.5 C59.31145477294922 -38.24830465534747, 59.31145477294922 36.003390689305064, 59.31145477294922 112.5 M59.31145477294922 112.5 C19.163322741239305 112.5, -20.984809290470608 112.5, -59.31145477294922 112.5 M59.31145477294922 112.5 C32.79902327456308 112.5, 6.286591776176941 112.5, -59.31145477294922 112.5 M-59.31145477294922 112.5 C-59.31145477294922 61.53645267268723, -59.31145477294922 10.572905345374465, -59.31145477294922 -112.5 M-59.31145477294922 112.5 C-59.31145477294922 53.17553909768556, -59.31145477294922 -6.148921804628884, -59.31145477294922 -112.5" stroke="#FF7A3D" stroke-width="1.3" fill="none" stroke-dasharray="0 0" style=""/></g><g class="annotation-group text" transform="translate(0, -92.5)"/><g class="label-group text" transform="translate(-19.576034545898438, -92.5)"><g class="label" style="font-weight: bolder" transform="translate(0,-12)"><g><rect class="background" style="stroke: none"/><text y="-10.1" style=""><tspan class="text-outer-tspan row" x="0" y="-0.1em" dy="1.1em" font-weight=""><tspan font-style="normal" class="text-inner-tspan" font-weight="">Deck</tspan></tspan></text></g></g></g><g class="members-group text" transform="translate(-47.31145477294922, -44.5)"><g class="label" style="" transform="translate(0,-12)"><g><rect class="background" style="stroke: none"/><text y="-10.1" style=""><tspan class="text-outer-tspan row" x="0" y="-0.1em" dy="1.1em"><tspan font-style="normal" class="text-inner-tspan" font-weight="normal">+title</tspan></tspan></text></g></g><g class="label" style="" transform="translate(0,15)"><g><rect class="background" style="stroke: none"/><text y="-10.1" style=""><tspan class="text-outer-tspan row" x="0" y="-0.1em" dy="1.1em"><tspan font-style="normal" class="text-inner-tspan" font-weight="normal">+authors</tspan></tspan></text></g></g><g class="label" style="" transform="translate(0,42)"><g><rect class="background" style="stroke: none"/><text y="-10.1" style=""><tspan class="text-outer-tspan row" x="0" y="-0.1em" dy="1.1em"><tspan font-style="normal" class="text-inner-tspan" font-weight="normal">+layout</tspan></tspan></text></g></g></g><g class="methods-group text" transform="translate(-47.31145477294922, 57.5)"><g class="label" style="" transform="translate(0,-12)"><g><rect class="background" style="stroke: none"/><text y="-10.1" style=""><tspan class="text-outer-tspan row" x="0" y="-0.1em" dy="1.1em"><tspan font-style="normal" class="text-inner-tspan" font-weight="normal">+render()</tspan></tspan></text></g></g><g class="label" style="" transform="translate(0,15)"><g><rect class="background" style="stroke: none"/><text y="-10.1" style=""><tspan class="text-outer-tspan row" x="0" y="-0.1em" dy="1.1em"><tspan font-style="normal" class="text-inner-tspan" font-weight="normal">+agenda()</tspan></tspan></text></g></g></g><g class="divider" style=""><path d="M-59.31145477294922 -64.5 C-26.244748710329596 -64.49972124519464, 6.821957352290028 -64.49944249038926, 59.31145477294922 -64.499 M-59.31145477294922 -64.5 C-30.365659410648185 -64.49975598478007, -1.4198640483471507 -64.49951196956013, 59.31145477294922 -64.499" stroke="#FF7A3D" stroke-width="1.3" fill="none" stroke-dasharray="0 0" style=""/></g><g class="divider" style=""><path d="M-59.31145477294922 37.5 C-21.575104703614834 37.50031812025362, 16.16124536571955 37.50063624050723, 59.31145477294922 37.501 M-59.31145477294922 37.5 C-18.662882618629595 37.50034267050361, 21.985689535690028 37.50068534100723, 59.31145477294922 37.501" stroke="#FF7A3D" stroke-width="1.3" fill="none" stroke-dasharray="0 0" style=""/></g></g><g class="node default" id="my-svg-classId-Slide-1" data-look="classic" transform="translate(242.47447204589844, 120.5)"><g class="basic label-container outer-path"><path d="M-65.8515625 -99 L65.8515625 -99 L65.8515625 99 L-65.8515625 99" stroke="none" stroke-width="0" fill="#FFEEE5" style=""/><path d="M-65.8515625 -99 C-31.542042500609 -99, 2.767477498782 -99, 65.8515625 -99 M-65.8515625 -99 C-23.536407819102976 -99, 18.778746861794048 -99, 65.8515625 -99 M65.8515625 -99 C65.8515625 -36.33901429117319, 65.8515625 26.321971417653614, 65.8515625 99 M65.8515625 -99 C65.8515625 -51.689354975186916, 65.8515625 -4.378709950373832, 65.8515625 99 M65.8515625 99 C26.121637586613026 99, -13.608287326773947 99, -65.8515625 99 M65.8515625 99 C38.77609953084196 99, 11.700636561683922 99, -65.8515625 99 M-65.8515625 99 C-65.8515625 31.303966804586267, -65.8515625 -36.392066390827466, -65.8515625 -99 M-65.8515625 99 C-65.8515625 44.06128706438119, -65.8515625 -10.87742587123762, -65.8515625 -99" stroke="#FF7A3D" stroke-width="1.3" fill="none" stroke-dasharray="0 0" style=""/></g><g class="annotation-group text" transform="translate(0, -79)"/><g class="label-group text" transform="translate(-19.75, -79)"><g class="label" style="font-weight: bolder" transform="translate(0,-12)"><g><rect class="background" style="stroke: none"/><text y="-10.1" style=""><tspan class="text-outer-tspan row" x="0" y="-0.1em" dy="1.1em" font-weight=""><tspan font-style="normal" class="text-inner-tspan" font-weight="">Slide</tspan></tspan></text></g></g></g><g class="members-group text" transform="translate(-53.8515625, -31)"><g class="label" style="" transform="translate(0,-12)"><g><rect class="background" style="stroke: none"/><text y="-10.1" style=""><tspan class="text-outer-tspan row" x="0" y="-0.1em" dy="1.1em"><tspan font-style="normal" class="text-inner-tspan" font-weight="normal">+heading</tspan></tspan></text></g></g><g class="label" style="" transform="translate(0,15)"><g><rect class="background" style="stroke: none"/><text y="-10.1" style=""><tspan class="text-outer-tspan row" x="0" y="-0.1em" dy="1.1em"><tspan font-style="normal" class="text-inner-tspan" font-weight="normal">+body</tspan></tspan></text></g></g><g class="label" style="" transform="translate(0,42)"><g><rect class="background" style="stroke: none"/><text y="-10.1" style=""><tspan class="text-outer-tspan row" x="0" y="-0.1em" dy="1.1em"><tspan font-style="normal" class="text-inner-tspan" font-weight="normal">+notes</tspan></tspan></text></g></g></g><g class="methods-group text" transform="translate(-53.8515625, 71)"><g class="label" style="" transform="translate(0,-12)"><g><rect class="background" style="stroke: none"/><text y="-10.1" style=""><tspan class="text-outer-tspan row" x="0" y="-0.1em" dy="1.1em"><tspan font-style="normal" class="text-inner-tspan" font-weight="normal">+compose()</tspan></tspan></text></g></g></g><g class="divider" style=""><path d="M-65.8515625 -51 C-33.83420034333049 -50.99975689747562, -1.8168381866609735 -50.999513794951234, 65.8515625 -50.999 M-65.8515625 -51 C-38.94267574310611 -50.99979568528266, -12.033788986212208 -50.99959137056533, 65.8515625 -50.999" stroke="#FF7A3D" stroke-width="1.3" fill="none" stroke-dasharray="0 0" style=""/></g><g class="divider" style=""><path d="M-65.8515625 51 C-24.22030503551656 51.00031609923807, 17.41095242896688 51.00063219847615, 65.8515625 51.001 M-65.8515625 51 C-35.197420508350845 51.00023275181961, -4.543278516701683 51.00046550363921, 65.8515625 51.001" stroke="#FF7A3D" stroke-width="1.3" fill="none" stroke-dasharray="0 0" style=""/></g></g><g class="node default" id="my-svg-classId-Diagram-2" data-look="classic" transform="translate(415.6421432495117, 244.5)"><g class="basic label-container outer-path"><path d="M-57.31610870361328 -99 L57.31610870361328 -99 L57.31610870361328 99 L-57.31610870361328 99" stroke="none" stroke-width="0" fill="#FFEEE5" style=""/><path d="M-57.31610870361328 -99 C-20.764341427023645 -99, 15.787425849565992 -99, 57.31610870361328 -99 M-57.31610870361328 -99 C-12.142071143258079 -99, 33.031966417097124 -99, 57.31610870361328 -99 M57.31610870361328 -99 C57.31610870361328 -39.531835776233514, 57.31610870361328 19.936328447532972, 57.31610870361328 99 M57.31610870361328 -99 C57.31610870361328 -30.61044334816326, 57.31610870361328 37.77911330367348, 57.31610870361328 99 M57.31610870361328 99 C13.120576404511887 99, -31.074955894589507 99, -57.31610870361328 99 M57.31610870361328 99 C32.038401887770775 99, 6.760695071928275 99, -57.31610870361328 99 M-57.31610870361328 99 C-57.31610870361328 30.040266687003523, -57.31610870361328 -38.91946662599295, -57.31610870361328 -99 M-57.31610870361328 99 C-57.31610870361328 44.017703908437106, -57.31610870361328 -10.964592183125788, -57.31610870361328 -99" stroke="#FF7A3D" stroke-width="1.3" fill="none" stroke-dasharray="0 0" style=""/></g><g class="annotation-group text" transform="translate(0, -79)"/><g class="label-group text" transform="translate(-33.328125, -79)"><g class="label" style="font-weight: bolder" transform="translate(0,-12)"><g><rect class="background" style="stroke: none"/><text y="-10.1" style=""><tspan class="text-outer-tspan row" x="0" y="-0.1em" dy="1.1em" font-weight=""><tspan font-style="normal" class="text-inner-tspan" font-weight="">Diagram</tspan></tspan></text></g></g></g><g class="members-group text" transform="translate(-45.31610870361328, -31)"><g class="label" style="" transform="translate(0,-12)"><g><rect class="background" style="stroke: none"/><text y="-10.1" style=""><tspan class="text-outer-tspan row" x="0" y="-0.1em" dy="1.1em"><tspan font-style="normal" class="text-inner-tspan" font-weight="normal">+nodes</tspan></tspan></text></g></g><g class="label" style="" transform="translate(0,15)"><g><rect class="background" style="stroke: none"/><text y="-10.1" style=""><tspan class="text-outer-tspan row" x="0" y="-0.1em" dy="1.1em"><tspan font-style="normal" class="text-inner-tspan" font-weight="normal">+edges</tspan></tspan></text></g></g><g class="label" style="" transform="translate(0,42)"><g><rect class="background" style="stroke: none"/><text y="-10.1" style=""><tspan class="text-outer-tspan row" x="0" y="-0.1em" dy="1.1em"><tspan font-style="normal" class="text-inner-tspan" font-weight="normal">+theme</tspan></tspan></text></g></g></g><g class="methods-group text" transform="translate(-45.31610870361328, 71)"><g class="label" style="" transform="translate(0,-12)"><g><rect class="background" style="stroke: none"/><text y="-10.1" style=""><tspan class="text-outer-tspan row" x="0" y="-0.1em" dy="1.1em"><tspan font-style="normal" class="text-inner-tspan" font-weight="normal">+draw()</tspan></tspan></text></g></g></g><g class="divider" style=""><path d="M-57.31610870361328 -51 C-12.35241724466404 -50.99960775694237, 32.6112742142852 -50.999215513884735, 57.31610870361328 -50.999 M-57.31610870361328 -51 C-29.743468629223024 -50.99975946866685, -2.1708285548327666 -50.99951893733371, 57.31610870361328 -50.999" stroke="#FF7A3D" stroke-width="1.3" fill="none" stroke-dasharray="0 0" style=""/></g><g class="divider" style=""><path d="M-57.31610870361328 51 C-12.227834186651123 51.000393329864295, 32.860440330311036 51.0007866597286, 57.31610870361328 51.001 M-57.31610870361328 51 C-15.439739229363937 51.00036531064671, 26.436630244885407 51.00073062129341, 57.31610870361328 51.001" stroke="#FF7A3D" stroke-width="1.3" fill="none" stroke-dasharray="0 0" style=""/></g></g><g class="node default" id="my-svg-classId-Asset-3" data-look="classic" transform="translate(242.47447204589844, 368.5)"><g class="basic label-container outer-path"><path d="M-54.09476852416992 -99 L54.09476852416992 -99 L54.09476852416992 99 L-54.09476852416992 99" stroke="none" stroke-width="0" fill="#FFEEE5" style=""/><path d="M-54.09476852416992 -99 C-23.545804637540254 -99, 7.003159249089414 -99, 54.09476852416992 -99 M-54.09476852416992 -99 C-30.570928375982014 -99, -7.047088227794106 -99, 54.09476852416992 -99 M54.09476852416992 -99 C54.09476852416992 -42.2712564499536, 54.09476852416992 14.457487100092806, 54.09476852416992 99 M54.09476852416992 -99 C54.09476852416992 -50.305412166260005, 54.09476852416992 -1.6108243325200107, 54.09476852416992 99 M54.09476852416992 99 C29.535105170363956 99, 4.975441816557989 99, -54.09476852416992 99 M54.09476852416992 99 C15.24112481576767 99, -23.612518892634583 99, -54.09476852416992 99 M-54.09476852416992 99 C-54.09476852416992 48.15691170097063, -54.09476852416992 -2.6861765980587364, -54.09476852416992 -99 M-54.09476852416992 99 C-54.09476852416992 20.30564023977179, -54.09476852416992 -58.38871952045642, -54.09476852416992 -99" stroke="#FF7A3D" stroke-width="1.3" fill="none" stroke-dasharray="0 0" style=""/></g><g class="annotation-group text" transform="translate(0, -79)"/><g class="label-group text" transform="translate(-21.752037048339844, -79)"><g class="label" style="font-weight: bolder" transform="translate(0,-12)"><g><rect class="background" style="stroke: none"/><text y="-10.1" style=""><tspan class="text-outer-tspan row" x="0" y="-0.1em" dy="1.1em" font-weight=""><tspan font-style="normal" class="text-inner-tspan" font-weight="">Asset</tspan></tspan></text></g></g></g><g class="members-group text" transform="translate(-42.09476852416992, -31)"><g class="label" style="" transform="translate(0,-12)"><g><rect class="background" style="stroke: none"/><text y="-10.1" style=""><tspan class="text-outer-tspan row" x="0" y="-0.1em" dy="1.1em"><tspan font-style="normal" class="text-inner-tspan" font-weight="normal">+logo</tspan></tspan></text></g></g><g class="label" style="" transform="translate(0,15)"><g><rect class="background" style="stroke: none"/><text y="-10.1" style=""><tspan class="text-outer-tspan row" x="0" y="-0.1em" dy="1.1em"><tspan font-style="normal" class="text-inner-tspan" font-weight="normal">+colors</tspan></tspan></text></g></g><g class="label" style="" transform="translate(0,42)"><g><rect class="background" style="stroke: none"/><text y="-10.1" style=""><tspan class="text-outer-tspan row" x="0" y="-0.1em" dy="1.1em"><tspan font-style="normal" class="text-inner-tspan" font-weight="normal">+fonts</tspan></tspan></text></g></g></g><g class="methods-group text" transform="translate(-42.09476852416992, 71)"><g class="label" style="" transform="translate(0,-12)"><g><rect class="background" style="stroke: none"/><text y="-10.1" style=""><tspan class="text-outer-tspan row" x="0" y="-0.1em" dy="1.1em"><tspan font-style="normal" class="text-inner-tspan" font-weight="normal">+apply()</tspan></tspan></text></g></g></g><g class="divider" style=""><path d="M-54.09476852416992 -51 C-14.56559328110913 -50.999634630331904, 24.96358196195166 -50.9992692606638, 54.09476852416992 -50.999 M-54.09476852416992 -51 C-18.37370393463852 -50.99966982884331, 17.34736065489288 -50.99933965768661, 54.09476852416992 -50.999" stroke="#FF7A3D" stroke-width="1.3" fill="none" stroke-dasharray="0 0" style=""/></g><g class="divider" style=""><path d="M-54.09476852416992 51 C-19.19221495366009 51.000322605628256, 15.71033861684974 51.00064521125652, 54.09476852416992 51.001 M-54.09476852416992 51 C-31.9288641563195 51.00020488029594, -9.762959788469075 51.00040976059187, 54.09476852416992 51.001" stroke="#FF7A3D" stroke-width="1.3" fill="none" stroke-dasharray="0 0" style=""/></g></g></g></g></g><defs><filter id="my-svg-drop-shadow" height="130%" width="130%"><feDropShadow dx="4" dy="4" stdDeviation="0" flood-opacity="0.06" flood-color="#000000"/></filter></defs><defs><filter id="my-svg-drop-shadow-small" height="150%" width="150%"><feDropShadow dx="2" dy="2" stdDeviation="0" flood-opacity="0.06" flood-color="#000000"/></filter></defs><linearGradient id="my-svg-gradient" gradientUnits="objectBoundingBox" x1="0%" y1="0%" x2="100%" y2="0%"><stop offset="0%" stop-color="#FF7A3D" stop-opacity="1"/><stop offset="100%" stop-color="#E6E0DC" stop-opacity="1"/></linearGradient></svg>